# xmcd
#
# Track frame offsets:
#	150
#	14975
#	26715
#	37580
#	51242
#	69125
#	83890
#	96015
#	108062
#	119325
#	133222
#	148610
#	159095
#
# Disc length: 2302 seconds
#
# Revision: 0
# Processed by: cddbd v1.5.2PL0 Copyright (c) Steve Scherf et al.
# Submitted via: dBpowerAMP V4.0
#
DISCID=a308fc0d
DTITLE=Heather Myles - Highways and Honky Tonks
DYEAR=1900
DGENRE=Country
TTITLE0=You´re Gonna Love Me One Day
TTITLE1=Kiss An Angel Good Morning
TTITLE2=You´ve taken Me Places I Wish I´d Never Been
TTITLE3=Broken Heart For Sale
TTITLE4=True Love
TTITLE5=No One Is Gonna Love You Better
TTITLE6=Playin´Every Honky Tonk In Town
TTITLE7=Mr.Lonesome
TTITLE8=Rock At The End Of My Rainbow
TTITLE9=Who Did You Call Darlin´
TTITLE10=Love Me A Little Bit Longer
TTITLE11=I´ll Be There If You Ever Want Me
TTITLE12=Little Chapel(With Dwight Yoakam)
EXTD=
EXTT0=
EXTT1=
EXTT2=
EXTT3=
EXTT4=
EXTT5=
EXTT6=
EXTT7=
EXTT8=
EXTT9=
EXTT10=
EXTT11=
EXTT12=
PLAYORDER=
